<?xml version="1.0" encoding="UTF-8"?>
<!DOCTYPE svg PUBLIC "-//W3C//DTD SVG 1.1//EN" "http://www.w3.org/Graphics/SVG/1.1/DTD/svg11.dtd">
<!-- Creator: CorelDRAW 2021 (64-Bit) -->
<svg xmlns="http://www.w3.org/2000/svg" xml:space="preserve" width="0.853331in" height="0.853335in" version="1.1" style="shape-rendering:geometricPrecision; text-rendering:geometricPrecision; image-rendering:optimizeQuality; fill-rule:evenodd; clip-rule:evenodd"
viewBox="0 0 19.1 19.1"
 xmlns:xlink="http://www.w3.org/1999/xlink"
 xmlns:xodm="http://www.corel.com/coreldraw/odm/2003">
 <defs>
  <style type="text/css">
   <![CDATA[
    .fil1 {fill:none}
    .fil0 {fill:#444444;fill-rule:nonzero}
   ]]>
  </style>
   <clipPath id="id0">
    <path d="M-0 0l19.1 0 0 19.1 -19.1 0 0 -19.1z"/>
   </clipPath>
 </defs>
 <g id="Layer_x0020_1">
  <metadata id="CorelCorpID_0Corel-Layer"/>
  <g>
  </g>
  <g style="clip-path:url(#id0)">
   <g>
    <path class="fil0" d="M17.75 10.54l-2.93 0c-0.49,0 -0.93,0.2 -1.25,0.52 -0.32,0.32 -0.52,0.76 -0.52,1.25 0,0.49 0.2,0.93 0.52,1.25 0.32,0.32 0.76,0.52 1.25,0.52l2.93 0c0.02,0 0.03,-0.01 0.04,-0.02 0.01,-0.01 0.02,-0.03 0.02,-0.05l0 -3.42c0,-0.02 -0.01,-0.03 -0.02,-0.05 -0.01,-0.01 -0.02,-0.02 -0.04,-0.02zm-9.48 5.45l0.28 0c0.22,0 0.4,0.18 0.4,0.4l0 0c0,0.22 -0.18,0.4 -0.4,0.4l-0.28 0c-0.22,0 -0.4,-0.18 -0.4,-0.4l0 -0c0,-0.22 0.18,-0.4 0.4,-0.4zm-4.12 0l2.79 0c0.22,0 0.4,0.18 0.4,0.4l0 0c0,0.22 -0.18,0.4 -0.4,0.4l-2.79 0c-0.22,0 -0.4,-0.18 -0.4,-0.4l0 -0c0,-0.22 0.18,-0.4 0.4,-0.4zm10.49 -4.45c0.43,0 0.77,0.35 0.77,0.77 0,0.43 -0.35,0.77 -0.77,0.77 -0.43,0 -0.77,-0.35 -0.77,-0.77 0,-0.43 0.35,-0.77 0.77,-0.77zm-12.15 -5.63l13.02 0c0.58,0 1.1,0.24 1.48,0.62 0.38,0.38 0.62,0.9 0.62,1.48l0 1.62 0.14 0c0.27,0 0.51,0.11 0.69,0.29 0.18,0.18 0.29,0.42 0.29,0.68l0 3.42c0,0.27 -0.11,0.51 -0.29,0.68 -0.18,0.18 -0.42,0.29 -0.69,0.29l-0.14 0 0 1.62c0,0.57 -0.24,1.1 -0.62,1.48 -0.38,0.38 -0.91,0.62 -1.48,0.62l-13.02 0c-0.58,0 -1.1,-0.24 -1.48,-0.62 -0.38,-0.38 -0.62,-0.9 -0.62,-1.48l0 -8.61c0,-0.57 0.24,-1.1 0.62,-1.48 0.38,-0.38 0.91,-0.62 1.48,-0.62zm14.21 3.72l0 -1.62c0,-0.33 -0.13,-0.63 -0.35,-0.84 -0.21,-0.21 -0.51,-0.35 -0.84,-0.35l-13.02 0c-0.33,0 -0.62,0.13 -0.84,0.35 -0.21,0.21 -0.35,0.51 -0.35,0.84l0 8.61c0,0.33 0.13,0.63 0.35,0.84 0.21,0.21 0.51,0.35 0.84,0.35l13.02 0c0.33,0 0.62,-0.13 0.84,-0.35 0.21,-0.21 0.35,-0.51 0.35,-0.84l0 -1.62 -1.87 0c-0.74,0 -1.41,-0.3 -1.9,-0.79 -0.49,-0.49 -0.79,-1.16 -0.79,-1.89 0,-0.74 0.3,-1.41 0.79,-1.89 0.49,-0.49 1.16,-0.79 1.9,-0.79l1.87 0z"/>
   </g>
  </g>
  <polygon class="fil1" points="-0,0 19.1,0 19.1,19.1 -0,19.1 "/>
 </g>
</svg>
