<?xml version="1.0" encoding="UTF-8"?>
<!DOCTYPE svg PUBLIC "-//W3C//DTD SVG 1.1//EN" "http://www.w3.org/Graphics/SVG/1.1/DTD/svg11.dtd">
<!-- Creator: CorelDRAW 2021 (64-Bit) -->
<svg xmlns="http://www.w3.org/2000/svg" xml:space="preserve" width="0.853331in" height="0.853335in" version="1.1" style="shape-rendering:geometricPrecision; text-rendering:geometricPrecision; image-rendering:optimizeQuality; fill-rule:evenodd; clip-rule:evenodd"
viewBox="0 0 20.29 20.29"
 xmlns:xlink="http://www.w3.org/1999/xlink"
 xmlns:xodm="http://www.corel.com/coreldraw/odm/2003">
 <defs>
  <style type="text/css">
   <![CDATA[
    .fil1 {fill:none}
    .fil0 {fill:#444444;fill-rule:nonzero}
   ]]>
  </style>
   <clipPath id="id0">
    <path d="M-0 0l20.29 0 0 20.29 -20.29 0 0 -20.29z"/>
   </clipPath>
 </defs>
 <g id="Layer_x0020_1">
  <metadata id="CorelCorpID_0Corel-Layer"/>
  <g>
  </g>
  <g style="clip-path:url(#id0)">
   <g>
    <path class="fil0" d="M18.85 11.19l-3.11 0c-0.52,0 -0.99,0.21 -1.33,0.55 -0.34,0.34 -0.55,0.81 -0.55,1.33 0,0.52 0.21,0.99 0.55,1.33 0.34,0.34 0.81,0.55 1.33,0.55l3.11 0c0.02,0 0.03,-0.01 0.04,-0.02 0.01,-0.01 0.02,-0.03 0.02,-0.05l0 -3.64c0,-0.02 -0.01,-0.04 -0.02,-0.05 -0.01,-0.01 -0.03,-0.02 -0.04,-0.02zm-16.32 -5.94l1.61 0.15 0.52 -1.93c0.05,-0.2 0.27,-0.32 0.47,-0.27l0.01 0 10.73 3.07 0.6 0c0.61,0 1.17,0.25 1.58,0.66 0.4,0.4 0.66,0.96 0.66,1.57l0 1.73 0.15 0c0.28,0 0.54,0.12 0.73,0.3 0.19,0.19 0.3,0.44 0.3,0.73l0 3.64c0,0.28 -0.12,0.54 -0.3,0.73 -0.19,0.19 -0.45,0.3 -0.73,0.3l-0.15 0 0 1.73c0,0.61 -0.25,1.17 -0.66,1.57 -0.4,0.4 -0.96,0.66 -1.58,0.66l-13.83 0c-0.61,0 -1.17,-0.25 -1.58,-0.66 -0.4,-0.4 -0.66,-0.96 -0.66,-1.57l0 -9.15c0,-0.61 0.25,-1.17 0.66,-1.57 0.26,-0.26 0.59,-0.46 0.96,-0.57l0.06 -0.76c0.02,-0.21 0.2,-0.37 0.42,-0.35 0.01,0 0.03,0 0.04,0.01zm1.92 0.18l8.49 0.8 -7.64 -2.19 -0.39 1.43 -0.46 -0.04zm8.49 0.8l0.43 0.04 0 0 -0.43 -0.04zm-7.74 0.04l-2.39 -0.22 -0.02 0.22 2.41 0zm3.58 10.71l0.29 0c0.23,0 0.42,0.19 0.42,0.42l0 0c0,0.23 -0.19,0.42 -0.42,0.42l-0.29 0c-0.23,0 -0.42,-0.19 -0.42,-0.42l0 -0c0,-0.23 0.19,-0.42 0.42,-0.42zm-4.38 0l2.96 0c0.23,0 0.42,0.19 0.42,0.42l0 0c0,0.23 -0.19,0.42 -0.42,0.42l-2.96 0c-0.23,0 -0.42,-0.19 -0.42,-0.42l0 -0c0,-0.23 0.19,-0.42 0.42,-0.42zm11.15 -4.72c0.45,0 0.82,0.37 0.82,0.82 0,0.45 -0.37,0.82 -0.82,0.82 -0.45,0 -0.82,-0.37 -0.82,-0.82 0,-0.45 0.37,-0.82 0.82,-0.82zm2.18 -2.03l0 -1.73c0,-0.35 -0.14,-0.67 -0.37,-0.89 -0.23,-0.23 -0.54,-0.37 -0.89,-0.37l-13.83 0c-0.35,0 -0.66,0.14 -0.89,0.37 -0.23,0.23 -0.37,0.54 -0.37,0.89l0 9.15c0,0.35 0.14,0.67 0.37,0.89 0.23,0.23 0.54,0.37 0.89,0.37l13.83 0c0.35,0 0.66,-0.14 0.89,-0.37 0.23,-0.23 0.37,-0.54 0.37,-0.89l0 -1.73 -1.99 0c-0.79,0 -1.5,-0.32 -2.02,-0.84 -0.52,-0.52 -0.84,-1.23 -0.84,-2.01 0,-0.78 0.32,-1.49 0.84,-2.01 0.52,-0.52 1.23,-0.84 2.02,-0.84l1.99 0z"/>
   </g>
  </g>
  <polygon class="fil1" points="-0,0 20.29,0 20.29,20.29 -0,20.29 "/>
 </g>
</svg>
