<?xml version="1.0" encoding="UTF-8"?>
<!DOCTYPE svg PUBLIC "-//W3C//DTD SVG 1.1//EN" "http://www.w3.org/Graphics/SVG/1.1/DTD/svg11.dtd">
<!-- Creator: CorelDRAW 2021 (64-Bit) -->
<svg xmlns="http://www.w3.org/2000/svg" xml:space="preserve" width="0.853335in" height="0.853335in" version="1.1" style="shape-rendering:geometricPrecision; text-rendering:geometricPrecision; image-rendering:optimizeQuality; fill-rule:evenodd; clip-rule:evenodd"
viewBox="0 0 21.71 21.71"
 xmlns:xlink="http://www.w3.org/1999/xlink"
 xmlns:xodm="http://www.corel.com/coreldraw/odm/2003">
 <defs>
  <style type="text/css">
   <![CDATA[
    .fil1 {fill:none}
    .fil0 {fill:#444444;fill-rule:nonzero}
   ]]>
  </style>
   <clipPath id="id0">
    <path d="M-0 0l21.71 0 0 21.71 -21.71 0 0 -21.71z"/>
   </clipPath>
 </defs>
 <g id="Layer_x0020_1">
  <metadata id="CorelCorpID_0Corel-Layer"/>
  <g>
  </g>
  <g style="clip-path:url(#id0)">
   <g>
    <path class="fil0" d="M20.17 11.97l-3.33 0c-0.55,0 -1.06,0.23 -1.42,0.59 -0.36,0.36 -0.59,0.87 -0.59,1.43 0,0.56 0.23,1.06 0.59,1.43 0.36,0.36 0.87,0.59 1.42,0.59l3.33 0c0.02,0 0.03,-0.01 0.05,-0.02 0.01,-0.01 0.02,-0.03 0.02,-0.05l0 -3.89c0,-0.02 -0.01,-0.04 -0.02,-0.05 -0.01,-0.01 -0.03,-0.02 -0.05,-0.02zm-16.69 -7.96l2.21 0.5 -0.57 -0.13 1.74 -3.04c0.11,-0.2 0.37,-0.26 0.56,-0.15 0.01,0.01 0.02,0.01 0.04,0.02l9.2 5.48 0.01 0.01 0.95 0c0.66,0 1.25,0.27 1.69,0.7 0.43,0.43 0.7,1.03 0.7,1.68l0 1.85 0.16 0c0.3,0 0.58,0.12 0.78,0.33 0.2,0.2 0.32,0.48 0.32,0.78l0 3.89c0,0.3 -0.12,0.58 -0.32,0.78 -0.2,0.2 -0.48,0.33 -0.78,0.33l-0.16 0 0 1.85c0,0.65 -0.27,1.25 -0.7,1.68 -0.43,0.43 -1.03,0.7 -1.69,0.7l-14.8 0c-0.66,0 -1.25,-0.27 -1.69,-0.7 -0.43,-0.43 -0.7,-1.03 -0.7,-1.68l0 -9.79c0,-0.65 0.27,-1.25 0.7,-1.68 0.35,-0.35 0.8,-0.59 1.3,-0.67l0.51 -2.43c0.05,-0.22 0.27,-0.36 0.49,-0.32 0.01,0 0.03,0.01 0.04,0.01zm2.48 0.57l9.26 2.11 -0.32 -0.07 -7.53 -4.49 -1.41 2.45zm5.69 2.13l-7.98 -1.82 -0.38 1.82 8.36 0zm-2.25 11.45l0.31 0c0.25,0 0.45,0.2 0.45,0.45l0 0c0,0.25 -0.2,0.45 -0.45,0.45l-0.31 0c-0.25,0 -0.45,-0.2 -0.45,-0.45l0 -0c0,-0.25 0.2,-0.45 0.45,-0.45zm-4.69 0l3.17 0c0.25,0 0.45,0.2 0.45,0.45l0 0c0,0.25 -0.2,0.45 -0.45,0.45l-3.17 0c-0.25,0 -0.45,-0.2 -0.45,-0.45l0 -0c0,-0.25 0.2,-0.45 0.45,-0.45zm11.92 -5.05c0.48,0 0.88,0.39 0.88,0.88 0,0.48 -0.39,0.88 -0.88,0.88 -0.48,0 -0.88,-0.39 -0.88,-0.88 0,-0.48 0.39,-0.88 0.88,-0.88zm2.33 -2.17l0 -1.85c0,-0.37 -0.15,-0.71 -0.4,-0.96 -0.24,-0.24 -0.58,-0.4 -0.95,-0.4l-14.8 0c-0.37,0 -0.71,0.15 -0.95,0.4 -0.24,0.24 -0.4,0.58 -0.4,0.96l0 9.79c0,0.37 0.15,0.71 0.4,0.96 0.24,0.24 0.58,0.4 0.95,0.4l14.8 0c0.37,0 0.71,-0.15 0.95,-0.4 0.24,-0.24 0.4,-0.58 0.4,-0.96l0 -1.85 -2.13 0c-0.84,0 -1.6,-0.34 -2.16,-0.9 -0.55,-0.55 -0.9,-1.31 -0.9,-2.15 0,-0.84 0.34,-1.6 0.9,-2.15 0.55,-0.55 1.32,-0.9 2.16,-0.9l2.13 0z"/>
   </g>
  </g>
  <polygon class="fil1" points="-0,0 21.71,0 21.71,21.71 -0,21.71 "/>
 </g>
</svg>
