<?xml version="1.0" encoding="UTF-8"?>
<!DOCTYPE svg PUBLIC "-//W3C//DTD SVG 1.1//EN" "http://www.w3.org/Graphics/SVG/1.1/DTD/svg11.dtd">
<!-- Creator: CorelDRAW 2021 (64-Bit) -->
<svg xmlns="http://www.w3.org/2000/svg" xml:space="preserve" width="0.853335in" height="0.853335in" version="1.1" style="shape-rendering:geometricPrecision; text-rendering:geometricPrecision; image-rendering:optimizeQuality; fill-rule:evenodd; clip-rule:evenodd"
viewBox="0 0 23.28 23.28"
 xmlns:xlink="http://www.w3.org/1999/xlink"
 xmlns:xodm="http://www.corel.com/coreldraw/odm/2003">
 <defs>
  <style type="text/css">
   <![CDATA[
    .fil1 {fill:none}
    .fil0 {fill:#444444;fill-rule:nonzero}
   ]]>
  </style>
   <clipPath id="id0">
    <path d="M-0 0l23.28 0 0 23.28 -23.28 0 0 -23.28z"/>
   </clipPath>
 </defs>
 <g id="Layer_x0020_1">
  <metadata id="CorelCorpID_0Corel-Layer"/>
  <g>
  </g>
  <g style="clip-path:url(#id0)">
   <g>
    <path class="fil0" d="M21.63 12.84l-3.57 0c-0.59,0 -1.13,0.24 -1.52,0.63 -0.39,0.39 -0.63,0.93 -0.63,1.53 0,0.6 0.24,1.14 0.63,1.53 0.39,0.39 0.93,0.63 1.52,0.63l3.57 0c0.02,0 0.04,-0.01 0.05,-0.02 0.01,-0.01 0.02,-0.03 0.02,-0.05l0 -4.17c0,-0.02 -0.01,-0.04 -0.02,-0.05 -0.01,-0.01 -0.03,-0.02 -0.05,-0.02zm-11.72 -12.21l7.15 6.57 1.84 0c0.7,0 1.34,0.29 1.81,0.75 0.46,0.46 0.75,1.1 0.75,1.8l0 1.98 0.17 0c0.33,0 0.62,0.13 0.84,0.35 0.21,0.21 0.35,0.51 0.35,0.83l0 4.17c0,0.32 -0.13,0.62 -0.35,0.83 -0.22,0.22 -0.51,0.35 -0.84,0.35l-0.17 0 0 1.98c0,0.7 -0.29,1.34 -0.75,1.8 -0.46,0.46 -1.1,0.75 -1.81,0.75l-15.87 0c-0.7,0 -1.34,-0.29 -1.81,-0.75 -0.46,-0.46 -0.75,-1.1 -0.75,-1.8l0 -10.5c0,-0.7 0.29,-1.34 0.75,-1.8 0.29,-0.29 0.65,-0.51 1.05,-0.64l1.93 -4.36c0.1,-0.23 0.38,-0.34 0.61,-0.23l0.01 0 1.8 0.83 2.61 -2.93c0.17,-0.19 0.46,-0.21 0.66,-0.03 0.01,0.01 0.02,0.02 0.03,0.03zm5.78 6.57l-6.09 -5.59 -2.11 2.37 6.99 3.23 1.2 0zm-3.41 0l-7.43 -3.43 -1.52 3.43 8.95 0zm-2.21 12.28l0.34 0c0.27,0 0.49,0.22 0.49,0.49l0 0c0,0.27 -0.22,0.49 -0.49,0.49l-0.34 0c-0.27,0 -0.49,-0.22 -0.49,-0.49l0 -0c0,-0.27 0.22,-0.49 0.49,-0.49zm-5.03 0l3.4 0c0.27,0 0.49,0.22 0.49,0.49l0 0c0,0.27 -0.22,0.49 -0.49,0.49l-3.4 0c-0.27,0 -0.49,-0.22 -0.49,-0.49l0 -0c0,-0.27 0.22,-0.49 0.49,-0.49zm12.79 -5.42c0.52,0 0.94,0.42 0.94,0.94 0,0.52 -0.42,0.94 -0.94,0.94 -0.52,0 -0.94,-0.42 -0.94,-0.94 0,-0.52 0.42,-0.94 0.94,-0.94zm2.5 -2.33l0 -1.98c0,-0.4 -0.16,-0.76 -0.42,-1.02 -0.26,-0.26 -0.62,-0.42 -1.02,-0.42l-15.87 0c-0.4,0 -0.76,0.16 -1.02,0.42 -0.26,0.26 -0.42,0.62 -0.42,1.02l0 10.5c0,0.4 0.16,0.76 0.42,1.02 0.26,0.26 0.62,0.42 1.02,0.42l15.87 0c0.4,0 0.76,-0.16 1.02,-0.42 0.26,-0.26 0.42,-0.62 0.42,-1.02l0 -1.98 -2.28 0c-0.9,0 -1.72,-0.37 -2.31,-0.96 -0.59,-0.59 -0.96,-1.41 -0.96,-2.31 0,-0.9 0.37,-1.71 0.96,-2.31 0.59,-0.59 1.41,-0.96 2.31,-0.96l2.28 0z"/>
   </g>
  </g>
  <polygon class="fil1" points="-0,0 23.28,0 23.28,23.28 -0,23.28 "/>
 </g>
</svg>
