<?xml version="1.0" encoding="utf-8"?>
<!-- Generator: Adobe Illustrator 22.0.0, SVG Export Plug-In . SVG Version: 6.00 Build 0)  -->
<svg version="1.1" id="Layer_1" xmlns="http://www.w3.org/2000/svg" xmlns:xlink="http://www.w3.org/1999/xlink" x="0px" y="0px"
	 viewBox="0 0 296.2 109.6" style="enable-background:new 0 0 296.2 109.6;" xml:space="preserve">
<style type="text/css">
	.st0{enable-background:new    ;}
</style>
<title>Resurs 1</title>
<metadata><?xpacket begin="﻿" id="W5M0MpCehiHzreSzNTczkc9d"?>
<x:xmpmeta xmlns:x="adobe:ns:meta/" x:xmptk="Adobe XMP Core 5.6-c143 79.161210, 2017/08/11-10:28:36        ">
   <rdf:RDF xmlns:rdf="http://www.w3.org/1999/02/22-rdf-syntax-ns#">
      <rdf:Description rdf:about=""
            xmlns:dc="http://purl.org/dc/elements/1.1/">
         <dc:title>
            <rdf:Alt>
               <rdf:li xml:lang="x-default">Resurs 1</rdf:li>
            </rdf:Alt>
         </dc:title>
      </rdf:Description>
   </rdf:RDF>
</x:xmpmeta>
                                                                                                    
                                                                                                    
                                                                                                    
                                                                                                    
                                                                                                    
                                                                                                    
                                                                                                    
                                                                                                    
                                                                                                    
                                                                                                    
                                                                                                    
                                                                                                    
                                                                                                    
                                                                                                    
                                                                                                    
                                                                                                    
                                                                                                    
                                                                                                    
                                                                                                    
                                                                                                    
                           
<?xpacket end="w"?></metadata>
<g id="Lager_2">
	<g id="Layer_1_1_">
		<path d="M9.9,17.9c1.1-1.1,1.7-2.6,1.7-4.1c0-1.1-0.3-2.2-1-3.2c-0.9-1-2-1.7-3.2-2.2L5.6,7.7c-1.3-0.5-2-1.2-2-2.1
			C3.6,5,3.8,4.4,4.3,4s1.2-0.7,1.9-0.6c0.5,0,1.1,0.1,1.5,0.4c0.5,0.4,0.9,0.8,1.2,1.4l2.2-1.3c-0.9-1.9-2.8-3-4.9-3
			C4.8,0.8,3.4,1.3,2.4,2.2C1.4,3,0.8,4.3,0.8,5.6c0,2,1.2,3.5,3.7,4.6l1.8,0.7c0.4,0.2,0.8,0.4,1.2,0.6c0.3,0.2,0.6,0.4,0.8,0.7
			c0.2,0.2,0.4,0.5,0.5,0.8s0.2,0.7,0.1,1c0,0.8-0.3,1.6-0.8,2.1C7.4,16.7,6.7,17,5.9,17c-1,0.1-1.9-0.4-2.5-1.2
			c-0.4-0.7-0.6-1.4-0.7-2.2L0,14.2c0.2,1.5,0.8,2.9,1.9,3.9C3,19,4.4,19.5,5.8,19.5C7.3,19.6,8.8,19,9.9,17.9z"/>
		<polygon points="17.6,10.8 25.4,10.8 25.4,19.2 28.2,19.2 28.2,1.1 25.4,1.1 25.4,8.2 17.6,8.2 17.6,1.1 14.9,1.1 14.9,19.2 
			17.6,19.2 		"/>
		<path d="M40.6,19.6c2.5,0,5-0.9,6.8-2.7c1.8-1.7,2.8-4.1,2.8-6.6s-1-4.9-2.8-6.6c-1.7-1.8-4.1-2.8-6.6-2.8s-4.9,1-6.7,2.7
			s-2.8,4.1-2.8,6.6c-0.1,2.7,1,5.2,3.1,7C36,18.7,38.3,19.6,40.6,19.6z M36,5.3c2.6-2.6,6.9-2.6,9.5,0c1.3,1.3,2,3,1.9,4.9
			c0,1.8-0.7,3.6-2,4.9c-2.6,2.6-6.8,2.6-9.4,0c-1.3-1.3-2.1-3.1-2-4.9C34,8.3,34.7,6.6,36,5.3z"/>
		<path d="M69.7,11.9H71c1.6,0.1,3.2-0.4,4.5-1.4c1.1-1,1.7-2.4,1.7-3.9c0-1.4-0.5-2.8-1.6-3.8c-0.6-0.6-1.3-1-2.1-1.2
			c-1.2-0.2-2.3-0.4-3.5-0.3h-3.1v18.1h2.7L69.7,11.9z M69.7,3.6h1c2.6,0,3.9,0.9,3.9,2.8s-1.3,2.8-3.8,2.9h-1.1V3.6z"/>
		<path d="M79.4,19.2l2-4.4h7.8l1.9,4.4h3L85.4,0l-9,19.2H79.4z M85.4,6.1l2.6,6.2h-5.5L85.4,6.1z"/>
		<path d="M56.3,11.9h1.3c1.6,0.1,3.2-0.4,4.5-1.4c1.1-1,1.7-2.4,1.7-3.9c0-1.4-0.5-2.8-1.6-3.8c-0.6-0.6-1.3-1-2.1-1.2
			c-1.1-0.2-2.3-0.4-3.5-0.3h-3.1v18.1h2.7L56.3,11.9L56.3,11.9z M56.3,3.6h1c2.6,0,3.9,0.9,3.9,2.8S60,9.3,57.4,9.3h-1.1
			C56.3,9.3,56.3,3.6,56.3,3.6z"/>
		<path d="M193.2,26.1h-11.6l-9,24.1l-9.1-24.1h-11.6L149,43.3c-0.3-1.3-0.7-2.7-1.2-3.9c-1.2-2.9-3-5.4-5.2-7.6
			c-2.3-2.2-5-3.9-7.9-5.1c-6.5-2.4-13.7-2.4-20.2,0c-2.9,1.1-5.6,2.9-7.9,5.1c-1.4,1.3-2.6,2.9-3.5,4.5c-1.8-3.4-4.5-6.3-7.8-8.3
			c-3.8-2.1-8.1-3.2-12.4-3.1c-3.4,0-6.7,0.5-9.9,1.7c-2.8,1.1-5.4,2.7-7.6,4.9c-2.1,2.1-3.8,4.7-4.9,7.5c-1.1,3-1.7,6.2-1.7,9.3
			l-8.5-22.2H37.4L23.9,61.4H13V26.1H1.2v45.2h31.4l2.7-7.9l3.1-8.9l5.3-15.1L49,54.5l3.1,8.9l2.7,7.9h12.5l-2-5.1
			c2.1,2,4.6,3.6,7.3,4.7c3.1,1.2,6.3,1.8,9.6,1.7c2.5,0,4.9-0.3,7.3-1c2.3-0.6,4.4-1.6,6.4-2.8c1.9-1.2,3.7-2.8,5.1-4.6
			c0.7-0.9,1.4-1.9,1.9-2.9c1,1.6,2.1,3,3.4,4.3c2.3,2.2,4.9,3.9,7.9,5.1c6.5,2.4,13.7,2.4,20.2,0c3-1.1,5.7-2.9,7.9-5.1
			c1.3-1.2,2.4-2.6,3.3-4.1l-1.6,9.7h11.7l3.9-26l10.1,26h4.7l10.7-26l3.9,26h11.7L193.2,26.1z M82.7,46.1v9.1h9.7
			c-0.2,1.2-0.5,2.3-1.1,3.4c-0.5,0.9-1.3,1.7-2.1,2.2c-0.9,0.6-1.9,1-2.9,1.3c-1.1,0.3-2.2,0.4-3.4,0.4c-1.8,0-3.5-0.3-5.2-1
			c-1.4-0.6-2.7-1.6-3.7-2.8c-1-1.3-1.8-2.7-2.2-4.3c-0.5-1.7-0.8-3.5-0.8-5.3c0-2,0.3-3.9,0.9-5.8c0.5-1.6,1.3-3.1,2.4-4.4
			c1-1.2,2.3-2.2,3.7-2.8c1.5-0.7,3.1-1,4.8-1c2,0,4,0.5,5.7,1.6c1.9,1.3,3.3,3.2,4.1,5.3l9.5-3.9c-0.2,0.4-0.4,0.8-0.6,1.3
			c-0.9,2.1-1.5,4.4-1.7,6.7H82.7z M136.3,53.8c-0.7,1.5-1.6,2.9-2.8,4c-3.7,3.5-9.1,4.5-13.9,2.6c-3-1.2-5.5-3.6-6.8-6.6
			c-1.4-3.2-1.4-6.8,0-10c1.3-3,3.8-5.4,6.8-6.6c4.7-1.9,10.1-0.9,13.9,2.6c1.2,1.1,2.1,2.5,2.8,4C137.6,47.1,137.6,50.7,136.3,53.8
			L136.3,53.8z"/>
	</g>
</g>
<g class="st0">
	<path d="M11.2,96.9H4.1v5.8h8.3v1.8H1.9V88.1h10.3v1.8H4.1v5.3h7.1V96.9z"/>
	<path d="M17.5,89.4v2.9h2.3V94h-2.3v7.6c0,0.5,0.1,0.9,0.3,1.1s0.5,0.4,1,0.4c0.2,0,0.6,0,1-0.1v1.7c-0.5,0.1-1.1,0.2-1.6,0.2
		c-0.9,0-1.6-0.3-2.1-0.8c-0.5-0.6-0.7-1.4-0.7-2.4V94h-2.2v-1.6h2.2v-2.9H17.5z"/>
	<path d="M25,89.4v2.9h2.3V94H25v7.6c0,0.5,0.1,0.9,0.3,1.1s0.5,0.4,1,0.4c0.2,0,0.6,0,1-0.1v1.7c-0.5,0.1-1.1,0.2-1.6,0.2
		c-0.9,0-1.6-0.3-2.1-0.8c-0.5-0.6-0.7-1.4-0.7-2.4V94h-2.2v-1.6H23v-2.9H25z"/>
	<path d="M35.5,89.1c0-0.3,0.1-0.6,0.3-0.9s0.5-0.3,0.9-0.3s0.7,0.1,0.9,0.3c0.2,0.2,0.3,0.5,0.3,0.9s-0.1,0.6-0.3,0.8
		c-0.2,0.2-0.5,0.3-0.9,0.3S36,90.2,35.8,90C35.6,89.7,35.5,89.5,35.5,89.1z M37.7,104.5h-2.1V92.3h2.1V104.5z"/>
	<path d="M43,92.3l0.1,1.5c0.9-1.2,2.1-1.8,3.6-1.8c2.6,0,3.9,1.5,3.9,4.4v8h-2.1v-8.1c0-0.9-0.2-1.5-0.6-1.9
		c-0.4-0.4-1-0.6-1.8-0.6c-0.7,0-1.3,0.2-1.8,0.5s-0.9,0.8-1.2,1.4v8.7H41V92.3H43z"/>
	<path d="M53.8,89.1c0-0.3,0.1-0.6,0.3-0.9s0.5-0.3,0.9-0.3s0.7,0.1,0.9,0.3c0.2,0.2,0.3,0.5,0.3,0.9s-0.1,0.6-0.3,0.8
		c-0.2,0.2-0.5,0.3-0.9,0.3s-0.7-0.1-0.9-0.3C53.9,89.7,53.8,89.5,53.8,89.1z M56,104.5h-2.1V92.3H56V104.5z"/>
	<path d="M62.2,89.4v2.9h2.3V94h-2.3v7.6c0,0.5,0.1,0.9,0.3,1.1s0.5,0.4,1,0.4c0.2,0,0.6,0,1-0.1v1.7c-0.5,0.1-1.1,0.2-1.6,0.2
		c-0.9,0-1.6-0.3-2.1-0.8c-0.5-0.6-0.7-1.4-0.7-2.4V94h-2.2v-1.6h2.2v-2.9H62.2z"/>
	<path d="M66.9,89.1c0-0.3,0.1-0.6,0.3-0.9s0.5-0.3,0.9-0.3s0.7,0.1,0.9,0.3c0.2,0.2,0.3,0.5,0.3,0.9s-0.1,0.6-0.3,0.8
		c-0.2,0.2-0.5,0.3-0.9,0.3s-0.7-0.1-0.9-0.3C67,89.7,66.9,89.5,66.9,89.1z M69.2,104.5h-2.1V92.3h2.1V104.5z"/>
	<path d="M80,104.5c-0.1-0.2-0.2-0.7-0.3-1.3c-1,1-2.1,1.5-3.5,1.5c-1.2,0-2.2-0.3-3-1c-0.8-0.7-1.2-1.5-1.2-2.6
		c0-1.3,0.5-2.3,1.4-3c1-0.7,2.3-1.1,4.1-1.1h2v-1c0-0.7-0.2-1.3-0.7-1.7c-0.4-0.4-1.1-0.6-1.9-0.6c-0.7,0-1.4,0.2-1.9,0.6
		c-0.5,0.4-0.8,0.8-0.8,1.4h-2.1c0-0.6,0.2-1.2,0.6-1.8s1-1,1.8-1.3s1.6-0.5,2.4-0.5c1.4,0,2.5,0.4,3.3,1.1c0.8,0.7,1.2,1.7,1.2,2.9
		v5.6c0,1.1,0.1,2,0.4,2.7v0.2H80z M76.6,102.9c0.7,0,1.3-0.2,1.9-0.5s1-0.8,1.3-1.3v-2.5h-1.6c-2.6,0-3.8,0.7-3.8,2.2
		c0,0.7,0.2,1.2,0.7,1.5C75.3,102.8,75.9,102.9,76.6,102.9z"/>
	<path d="M87.9,89.4v2.9h2.3V94h-2.3v7.6c0,0.5,0.1,0.9,0.3,1.1s0.5,0.4,1,0.4c0.2,0,0.6,0,1-0.1v1.7c-0.5,0.1-1.1,0.2-1.6,0.2
		c-0.9,0-1.6-0.3-2.1-0.8c-0.5-0.6-0.7-1.4-0.7-2.4V94h-2.2v-1.6h2.2v-2.9H87.9z"/>
	<path d="M92.6,89.1c0-0.3,0.1-0.6,0.3-0.9s0.5-0.3,0.9-0.3s0.7,0.1,0.9,0.3c0.2,0.2,0.3,0.5,0.3,0.9s-0.1,0.6-0.3,0.8
		c-0.2,0.2-0.5,0.3-0.9,0.3s-0.7-0.1-0.9-0.3C92.7,89.7,92.6,89.5,92.6,89.1z M94.8,104.5h-2.1V92.3h2.1V104.5z"/>
	<path d="M102.2,101.7l3-9.4h2.1l-4.4,12.2h-1.6L97,92.3h2.1L102.2,101.7z"/>
	<path d="M122.6,104.5c-0.1-0.2-0.2-0.7-0.3-1.3c-1,1-2.1,1.5-3.5,1.5c-1.2,0-2.2-0.3-3-1c-0.8-0.7-1.2-1.5-1.2-2.6
		c0-1.3,0.5-2.3,1.4-3c1-0.7,2.3-1.1,4.1-1.1h2v-1c0-0.7-0.2-1.3-0.7-1.7c-0.4-0.4-1.1-0.6-1.9-0.6c-0.7,0-1.4,0.2-1.9,0.6
		c-0.5,0.4-0.8,0.8-0.8,1.4h-2.1c0-0.6,0.2-1.2,0.6-1.8s1-1,1.8-1.3s1.6-0.5,2.4-0.5c1.4,0,2.5,0.4,3.3,1.1c0.8,0.7,1.2,1.7,1.2,2.9
		v5.6c0,1.1,0.1,2,0.4,2.7v0.2H122.6z M119.1,102.9c0.7,0,1.3-0.2,1.9-0.5s1-0.8,1.3-1.3v-2.5h-1.6c-2.6,0-3.8,0.7-3.8,2.2
		c0,0.7,0.2,1.2,0.7,1.5C117.9,102.8,118.4,102.9,119.1,102.9z"/>
	<path d="M131.4,101.7l3-9.4h2.1l-4.4,12.2h-1.6l-4.4-12.2h2.1L131.4,101.7z"/>
	<path d="M153.7,100.2h-6.9l-1.5,4.3H143l6.3-16.4h1.9l6.3,16.4h-2.2L153.7,100.2z M147.4,98.5h5.6l-2.8-7.7L147.4,98.5z"/>
	<path d="M161.6,104.5h-2.1V87.2h2.1V104.5z"/>
	<path d="M170,104.8c-1.7,0-3-0.5-4-1.6c-1-1.1-1.6-2.5-1.6-4.4v-0.4c0-1.2,0.2-2.3,0.7-3.2c0.5-0.9,1.1-1.7,1.9-2.2
		c0.8-0.5,1.7-0.8,2.7-0.8c1.6,0,2.8,0.5,3.7,1.6c0.9,1,1.3,2.5,1.3,4.5V99h-8.3c0,1.2,0.4,2.2,1.1,2.9s1.5,1.1,2.6,1.1
		c0.7,0,1.4-0.2,1.9-0.5c0.5-0.3,1-0.7,1.3-1.2l1.3,1C173.5,104,172,104.8,170,104.8z M169.7,93.8c-0.8,0-1.5,0.3-2.1,0.9
		c-0.6,0.6-0.9,1.5-1.1,2.6h6.1v-0.2c-0.1-1.1-0.3-1.9-0.9-2.5C171.3,94.1,170.6,93.8,169.7,93.8z"/>
	<path d="M180.5,98.9l-1.3,1.4v4.3h-2.1V87.2h2.1v10.5l1.1-1.3l3.8-4h2.5l-4.7,5.1l5.3,7.1h-2.4L180.5,98.9z"/>
	<path d="M191.6,89.4v2.9h2.3V94h-2.3v7.6c0,0.5,0.1,0.9,0.3,1.1c0.2,0.2,0.5,0.4,1,0.4c0.2,0,0.6,0,1-0.1v1.7
		c-0.5,0.1-1.1,0.2-1.6,0.2c-0.9,0-1.6-0.3-2.1-0.8c-0.5-0.6-0.7-1.4-0.7-2.4V94h-2.2v-1.6h2.2v-2.9H191.6z"/>
	<path d="M203.9,103.3c-0.8,1-2,1.4-3.6,1.4c-1.3,0-2.3-0.4-3-1.1c-0.7-0.8-1-1.9-1-3.3v-7.9h2.1v7.9c0,1.8,0.8,2.8,2.3,2.8
		c1.6,0,2.6-0.6,3.2-1.8v-8.9h2.1v12.2h-2L203.9,103.3z"/>
	<path d="M211,92.3l0.1,1.4c0.9-1.1,2.1-1.6,3.6-1.6c1.7,0,2.9,0.7,3.5,2c0.4-0.6,0.9-1.1,1.6-1.4c0.6-0.4,1.4-0.5,2.3-0.5
		c2.7,0,4,1.4,4.1,4.2v8.2H224v-8c0-0.9-0.2-1.5-0.6-2c-0.4-0.4-1.1-0.6-2-0.6c-0.8,0-1.4,0.2-1.9,0.7c-0.5,0.5-0.8,1.1-0.9,1.9v8.1
		h-2.1v-8c0-1.8-0.9-2.7-2.6-2.7c-1.4,0-2.3,0.6-2.8,1.7v8.9H209V92.3H211z"/>
	<path d="M247.4,102.4c-0.6,0.8-1.3,1.4-2.3,1.8c-1,0.4-2.2,0.6-3.5,0.6c-1.3,0-2.5-0.3-3.6-0.9c-1-0.6-1.8-1.5-2.4-2.7
		c-0.6-1.2-0.9-2.5-0.9-4v-1.4c0-2.5,0.6-4.4,1.7-5.7c1.2-1.4,2.8-2,4.9-2c1.7,0,3.1,0.4,4.1,1.3c1,0.9,1.7,2.1,1.9,3.7h-2.2
		c-0.4-2.2-1.7-3.3-3.9-3.3c-1.4,0-2.5,0.5-3.3,1.5c-0.7,1-1.1,2.5-1.1,4.4V97c0,1.8,0.4,3.3,1.3,4.4c0.8,1.1,2,1.6,3.4,1.6
		c0.8,0,1.5-0.1,2.1-0.3s1.1-0.5,1.5-0.9v-3.7h-3.8v-1.8h5.9V102.4z"/>
	<path d="M256.6,94.2c-0.3-0.1-0.7-0.1-1-0.1c-1.4,0-2.3,0.6-2.8,1.7v8.6h-2.1V92.3h2l0,1.4c0.7-1.1,1.7-1.6,2.9-1.6
		c0.4,0,0.7,0.1,0.9,0.2V94.2z"/>
	<path d="M257.7,98.3c0-1.2,0.2-2.3,0.7-3.2c0.5-1,1.1-1.7,2-2.2c0.8-0.5,1.8-0.8,2.9-0.8c1.7,0,3,0.6,4,1.7s1.5,2.7,1.5,4.6v0.1
		c0,1.2-0.2,2.2-0.7,3.2c-0.5,0.9-1.1,1.7-1.9,2.2c-0.8,0.5-1.8,0.8-2.9,0.8c-1.7,0-3-0.6-4-1.7c-1-1.1-1.5-2.7-1.5-4.6V98.3z
		 M259.8,98.6c0,1.4,0.3,2.4,0.9,3.3c0.6,0.8,1.5,1.2,2.5,1.2c1.1,0,1.9-0.4,2.5-1.2c0.6-0.8,0.9-2,0.9-3.5c0-1.3-0.3-2.4-1-3.2
		c-0.6-0.8-1.5-1.2-2.5-1.2c-1,0-1.9,0.4-2.5,1.2S259.8,97,259.8,98.6z"/>
	<path d="M278.9,103.3c-0.8,1-2,1.4-3.6,1.4c-1.3,0-2.3-0.4-3-1.1c-0.7-0.8-1-1.9-1-3.3v-7.9h2.1v7.9c0,1.8,0.8,2.8,2.3,2.8
		c1.6,0,2.6-0.6,3.2-1.8v-8.9h2.1v12.2h-2L278.9,103.3z"/>
	<path d="M294.4,98.6c0,1.9-0.4,3.3-1.3,4.5c-0.8,1.1-2,1.7-3.4,1.7c-1.5,0-2.6-0.5-3.5-1.4v5.9h-2.1V92.3h1.9l0.1,1.4
		c0.8-1.1,2-1.6,3.5-1.6c1.5,0,2.6,0.6,3.5,1.7c0.9,1.1,1.3,2.6,1.3,4.6V98.6z M292.3,98.3c0-1.4-0.3-2.5-0.9-3.3s-1.4-1.2-2.4-1.2
		c-1.3,0-2.2,0.6-2.8,1.7v5.8c0.6,1.1,1.6,1.7,2.9,1.7c1,0,1.8-0.4,2.4-1.2S292.3,99.9,292.3,98.3z"/>
</g>
</svg>
