<svg width="152" height="25" viewBox="0 0 152 25" fill="none" xmlns="http://www.w3.org/2000/svg">
<path d="M7.00007 16.9088L9.68068 14.9106C11.5563 16.5419 12.8692 16.7761 13.9633 16.7761C15.2137 16.7761 16.386 16.5107 16.5423 15.8004C16.6595 15.2384 16.1906 14.7857 15.12 14.5359C13.9086 14.2627 12.8927 14.0285 11.7517 13.7319C8.66469 12.9201 7.7893 11.1326 7.7893 9.52463C7.7893 7.30783 9.86034 5.02856 13.635 5.02856C17.5113 5.02856 19.7777 7.24536 19.7777 7.24536L17.2456 9.13433C16.0499 8.104 14.5103 7.90885 13.6585 7.90885C12.7988 7.90885 11.9001 8.15083 11.7594 8.76748C11.6265 9.36856 12.1814 9.82908 13.1426 10.0944C14.229 10.3833 15.2293 10.6409 16.7532 11.0779C19.0274 11.7258 20.5905 12.7094 20.5905 14.9964C20.5905 18.1343 17.8004 19.7579 14.0492 19.7579C10.3058 19.7579 7.76582 17.8143 7 16.9089" fill="black"/>
<path d="M21.7158 2H22.5911V22.5992H21.7158V2Z" fill="black"/>
<path d="M37.8984 2H38.7737V22.5992H37.8984V2Z" fill="black"/>
<path d="M24.6387 19.3443V5.24731H35.9315V8.471H28.6009V10.7191H33.7901V13.8257H28.601V16.0971H36.1347V19.3443H24.6387Z" fill="black"/>
<path d="M40.5425 19.3442V5.25488H48.8342C51.2178 5.25488 53.1481 6.64431 53.1481 8.8221C53.1481 10.5472 52.0853 11.5541 51.124 11.9365C51.124 11.9365 51.0615 11.9522 50.9599 11.96C51.0615 11.9678 51.124 11.9834 51.124 11.9834C52.7965 12.5142 54 13.7241 54 15.5506C54 17.8845 52.0306 19.3442 49.6079 19.3442H40.5425ZM44.5281 16.2141H48.3965C49.0843 16.2141 49.6392 15.6599 49.6392 14.9261C49.6392 14.2002 49.0843 13.646 48.3965 13.646H44.5281V16.2141ZM44.5281 10.6564H47.6854C48.42 10.6564 49.0062 10.0788 49.0062 9.42311C49.0062 8.75963 48.42 8.18206 47.6854 8.18206H44.5281V10.6564Z" fill="black"/>
</svg>
